<?xml version="1.0" encoding="UTF-8"?>
<svg width="148px" height="90px" viewBox="0 0 148 90" version="1.1" xmlns="http://www.w3.org/2000/svg" xmlns:xlink="http://www.w3.org/1999/xlink">
    <!-- Generator: Sketch 44.1 (41455) - http://www.bohemiancoding.com/sketch -->
    <title>Audience</title>
    <desc>Created with Sketch.</desc>
    <defs></defs>
    <g id="Page-1" stroke="none" stroke-width="1" fill="none" fill-rule="evenodd">
        <g id="Toolbox-promo-page" transform="translate(-561.000000, -887.000000)" fill="#2F2FAE">
            <g id="How-to-promote-Facebook-events" transform="translate(43.000000, 729.000000)">
                <g id="Audience" transform="translate(518.000000, 158.000000)">
                    <path d="M74.28,5 C63.19,5 54.18,14.02 54.18,25.1 L54.18,37.11 C54.18,48.19 63.19,57.2 74.28,57.2 C85.36,57.2 94.37,48.19 94.37,37.11 L94.37,25.1 C94.37,14.02 85.36,5 74.28,5 Z M74.28,62.2 C60.44,62.2 49.18,50.95 49.18,37.11 L49.18,25.1 C49.18,11.26 60.44,0 74.28,0 C88.11,0 99.37,11.26 99.37,25.1 L99.37,37.11 C99.37,50.95 88.11,62.2 74.28,62.2 L74.28,62.2 Z" id="Fill-851"></path>
                    <path d="M107.11,89.46 L41.09,89.46 C35.03,89.46 30.11,84.54 30.11,78.48 L30.11,69.34 C30.11,65.74 31.89,60.94 40.39,58.46 L50.27,55.73 C51.61,55.35 52.98,56.14 53.35,57.47 C53.72,58.8 52.94,60.18 51.61,60.55 L41.75,63.27 C35.11,65.21 35.11,68.32 35.11,69.34 L35.11,78.48 C35.11,81.78 37.79,84.46 41.09,84.46 L107.11,84.46 C110.4,84.46 113.08,81.78 113.08,78.48 L113.08,69.34 C113.08,66.58 110.84,64.54 106.42,63.27 L97.03,60.64 C95.7,60.27 94.92,58.89 95.29,57.56 C95.66,56.23 97.05,55.45 98.37,55.83 L107.78,58.46 C116.75,61.03 118.08,66.38 118.08,69.34 L118.08,78.48 C118.08,84.54 113.16,89.46 107.11,89.46" id="Fill-852"></path>
                    <path d="M120.06,23.7 C114.05,23.7 109.16,28.59 109.16,34.6 L109.16,41.71 C109.16,47.72 114.05,52.61 120.06,52.61 C126.06,52.61 130.95,47.72 130.95,41.71 L130.95,34.6 C130.95,28.59 126.06,23.7 120.06,23.7 Z M120.06,57.61 C111.29,57.61 104.16,50.48 104.16,41.71 L104.16,34.6 C104.16,25.83 111.29,18.7 120.06,18.7 C128.82,18.7 135.95,25.83 135.95,34.6 L135.95,41.71 C135.95,50.48 128.82,57.61 120.06,57.61 L120.06,57.61 Z" id="Fill-853"></path>
                    <path d="M139.52,73.76 L116.5,73.76 C115.12,73.76 114,72.64 114,71.26 C114,69.88 115.12,68.76 116.5,68.76 L139.52,68.76 C140.91,68.76 142.04,67.63 142.04,66.24 L142.04,60.82 C142.04,59.69 140.96,58.81 138.83,58.2 L138.56,58.1 L134.81,56.54 C133.53,56.01 132.93,54.55 133.46,53.27 C133.99,52 135.45,51.4 136.73,51.93 L140.35,53.43 C146.17,55.16 147.04,58.79 147.04,60.82 L147.04,66.24 C147.04,70.39 143.67,73.76 139.52,73.76" id="Fill-854"></path>
                    <path d="M27.2,23.7 C21.19,23.7 16.3,28.59 16.3,34.6 L16.3,41.71 C16.3,47.72 21.19,52.61 27.2,52.61 C33.2,52.61 38.09,47.72 38.09,41.71 L38.09,34.6 C38.09,28.59 33.2,23.7 27.2,23.7 Z M27.2,57.61 C18.43,57.61 11.3,50.48 11.3,41.71 L11.3,34.6 C11.3,25.83 18.43,18.7 27.2,18.7 C35.96,18.7 43.09,25.83 43.09,34.6 L43.09,41.71 C43.09,50.48 35.96,57.61 27.2,57.61 L27.2,57.61 Z" id="Fill-855"></path>
                    <path d="M31.7,73.76 L7.52,73.76 C3.38,73.76 0,70.39 0,66.24 L0,60.82 C0,58.8 0.87,55.17 6.7,53.43 L10.61,51.86 C11.88,51.34 13.34,51.97 13.86,53.25 C14.37,54.53 13.75,55.98 12.47,56.5 L8.22,58.19 C5,59.13 5,60.4 5,60.82 L5,66.24 C5,67.63 6.13,68.76 7.52,68.76 L31.7,68.76 C33.08,68.76 34.2,69.88 34.2,71.26 C34.2,72.64 33.08,73.76 31.7,73.76" id="Fill-856"></path>
                </g>
            </g>
        </g>
    </g>
</svg>