<?xml version="1.0" encoding="UTF-8"?>
<svg width="60px" height="60px" viewBox="0 0 60 60" version="1.1" xmlns="http://www.w3.org/2000/svg" xmlns:xlink="http://www.w3.org/1999/xlink">
    <!-- Generator: Sketch 44.1 (41455) - http://www.bohemiancoding.com/sketch -->
    <title>basketball L </title>
    <desc>Created with Sketch.</desc>
    <defs></defs>
    <g id="Page-1" stroke="none" stroke-width="1" fill="none" fill-rule="evenodd">
        <g id="Toolbox-promo-page" transform="translate(-772.000000, -570.000000)" fill="#FFFFFF">
            <g id="Good-For" transform="translate(55.000000, 292.000000)">
                <path d="M747,338 C730.431457,338 717,324.568543 717,308 C717,291.431457 730.431457,278 747,278 C763.568543,278 777,291.431457 777,308 C777,324.568543 763.568543,338 747,338 Z M761.581263,303.983041 C760.485954,303.98304 757.502045,309.010914 755.982835,319.714177 C754.30494,331.53542 750.197398,335.478399 750.197398,335.478399 C750.197398,335.478399 755.093934,335.061536 760.749999,331.83664 C766.406065,328.611744 770.024297,322.576686 770.024297,322.576686 C770.024297,322.576686 768.980776,317.074486 767.17833,312.805536 C765.375884,308.536587 762.676572,303.983041 761.581263,303.983041 Z M763.999281,301.159572 C763.999281,301.545606 767.365821,306.594455 769.017332,310.469152 C770.668842,314.34385 771.921607,319.73072 771.921607,319.73072 C771.921607,319.73072 774.035383,314.951241 774.480019,310.469152 C774.924656,305.987063 774.103818,302.983401 773.717784,301.921807 C773.331749,300.860214 771.304038,300.016218 769.017332,300.016218 C766.730625,300.016219 763.999281,300.773538 763.999281,301.159572 Z M762.603453,291.909122 C760.456139,293.501512 758.700297,294.925197 758.700297,294.925197 L762.130471,299.025257 C762.130471,299.025257 765.334775,297.432867 768.162252,297.432867 C770.98973,297.432866 772.842915,298.301443 772.842915,298.301443 C772.842915,298.301443 771.329611,294.959206 769.970126,292.90202 C768.61064,290.844835 766.684025,288.981755 766.684025,288.981755 C766.684025,288.981755 764.750768,290.316732 762.603453,291.909122 Z M753.010386,289.980117 L756.609603,293.283138 L764.88372,287.002134 C764.88372,287.002134 763.11998,285.774414 760.061064,283.818714 C758.323482,282.707801 755.233573,281.595527 755.233573,281.595527 C755.233573,281.595527 756.086854,283.512422 755.868769,285.533744 C755.650683,287.555065 753.010386,289.980117 753.010386,289.980117 Z M744.66507,280.579213 C740.941657,280.833291 737.448077,281.913125 737.448077,281.913125 C737.448077,281.913125 741.257973,282.928103 744.665069,284.517429 C747.855031,286.005468 750.641989,288.074529 751.041277,288.074529 C751.803512,288.074529 753.165211,286.360815 753.518543,284.771508 C753.85937,283.238446 753.105031,281.282422 752.565748,281.150889 C751.961891,281.003607 748.388483,280.325134 744.66507,280.579213 Z M724.998404,291.410339 C722.076758,295.139284 720.89555,299.052912 720.89555,299.052912 C720.89555,299.052912 723.751459,296.679691 731.072238,295.191401 C738.393018,293.703111 747.877674,291.685997 747.725002,290.082944 C747.564105,288.393534 739.586182,284.136312 734.780253,284.136312 C731.762689,284.136312 727.840856,287.782471 724.998404,291.410339 Z M750.469599,291.504588 C750.469599,291.504588 746.339661,295.121258 734.208576,296.840237 C722.077491,298.559217 719.85314,303.1922 719.85314,303.1922 C719.85314,303.1922 718.754071,309.82678 720.488337,315.197409 C722.222602,320.568037 724.879809,324.503984 724.879809,324.503984 C724.879809,324.503984 729.205578,318.872427 737.329097,310.514576 C745.452616,302.156724 754.407817,295.252246 754.407817,295.252246 L750.469599,291.504588 Z M756.393888,296.788067 C756.393888,296.788067 748.057848,303.310017 741.047387,310.449112 C734.036925,317.588207 726.765384,326.327861 726.765384,326.327861 C726.765384,326.327861 729.733911,330.237002 735.080079,333 C740.426247,335.762997 746.402776,335.762997 746.402776,335.762997 C746.402776,335.762997 751.435459,332.115391 753.043364,320.015316 C754.651269,307.915242 759.778819,300.473016 759.778819,300.473016 L756.393888,296.788067 Z" id="basketball-L-"></path>
            </g>
        </g>
    </g>
</svg>