<?xml version="1.0" encoding="UTF-8"?>
<svg width="90px" height="131px" viewBox="0 0 90 131" version="1.1" xmlns="http://www.w3.org/2000/svg" xmlns:xlink="http://www.w3.org/1999/xlink">
    <!-- Generator: Sketch 44.1 (41455) - http://www.bohemiancoding.com/sketch -->
    <title>Bell</title>
    <desc>Created with Sketch.</desc>
    <defs></defs>
    <g id="Page-1" stroke="none" stroke-width="1" fill="none" fill-rule="evenodd">
        <g id="Toolbox-promo-page" transform="translate(-168.000000, -1877.000000)" fill="#2F2FAE">
            <g id="One-Stop-Tool" transform="translate(45.000000, 1589.000000)">
                <g id="Bell" transform="translate(175.500000, 354.000000) rotate(10.000000) translate(-175.500000, -354.000000) translate(131.000000, 288.000000)">
                    <path d="M74.11,91.99 C72.73,91.99 71.61,90.87 71.61,89.49 L71.61,49.7 C71.61,34.4 59.16,21.95 43.86,21.95 C28.56,21.95 16.12,34.4 16.12,49.7 L16.12,89.49 C16.12,90.87 15,91.99 13.62,91.99 C12.23,91.99 11.12,90.87 11.12,89.49 L11.12,49.7 C11.12,31.64 25.81,16.95 43.86,16.95 C61.92,16.95 76.61,31.64 76.61,49.7 L76.61,89.49 C76.61,90.87 75.49,91.99 74.11,91.99" id="Fill-781"></path>
                    <path d="M5,109.66 L83.34,109.66 L83.34,100.61 C83.34,95.86 79.47,91.99 74.73,91.99 L13.62,91.99 C8.87,91.99 5,95.86 5,100.61 L5,109.66 Z M88.34,114.66 L0,114.66 L0,100.61 C0,93.1 6.11,86.99 13.62,86.99 L74.73,86.99 C82.23,86.99 88.34,93.1 88.34,100.61 L88.34,114.66 L88.34,114.66 Z" id="Fill-782"></path>
                    <path d="M44.17,131.28 C37.35,131.28 31.79,125.73 31.79,118.9 C31.79,117.52 32.91,116.4 34.29,116.4 C35.68,116.4 36.79,117.52 36.79,118.9 C36.79,122.97 40.1,126.28 44.17,126.28 C48.24,126.28 51.55,122.97 51.55,118.9 C51.55,117.52 52.67,116.4 54.05,116.4 C55.43,116.4 56.55,117.52 56.55,118.9 C56.55,125.73 50.99,131.28 44.17,131.28" id="Fill-783"></path>
                    <path d="M43.55,5 C42.04,5 40.81,6.23 40.81,7.74 C40.81,9.26 42.04,10.49 43.55,10.49 C45.07,10.49 46.3,9.26 46.3,7.74 C46.3,6.23 45.07,5 43.55,5 Z M43.55,15.49 C39.28,15.49 35.81,12.02 35.81,7.74 C35.81,3.47 39.28,0 43.55,0 C47.83,0 51.3,3.47 51.3,7.74 C51.3,12.02 47.83,15.49 43.55,15.49 L43.55,15.49 Z" id="Fill-784"></path>
                </g>
            </g>
        </g>
    </g>
</svg>