<?xml version="1.0" encoding="UTF-8"?>
<svg width="116px" height="76px" viewBox="0 0 116 76" version="1.1" xmlns="http://www.w3.org/2000/svg" xmlns:xlink="http://www.w3.org/1999/xlink">
    <!-- Generator: Sketch 44.1 (41455) - http://www.bohemiancoding.com/sketch -->
    <title>Bill</title>
    <desc>Created with Sketch.</desc>
    <defs></defs>
    <g id="Page-1" stroke="none" stroke-width="1" fill="none" fill-rule="evenodd">
        <g id="Toolbox-promo-page" transform="translate(-813.000000, -894.000000)" fill="#2F2FAE">
            <g id="How-to-promote-Facebook-events" transform="translate(43.000000, 729.000000)">
                <g id="Bill" transform="translate(828.000000, 203.000000) rotate(-270.000000) translate(-828.000000, -203.000000) translate(790.000000, 145.000000)">
                    <path d="M5,110.13 L70.054,110.13 L70.054,5 L5,5 L5,110.13 Z M0,115.13 L75.054,115.13 L75.054,0 L0,0 L0,115.13 Z" id="Fill-370"></path>
                    <path d="M37.527,77.97 L37.527,72.97 C46.024,72.97 52.937,66.06 52.937,57.56 C52.937,49.07 46.024,42.16 37.527,42.16 L37.527,37.16 C48.781,37.16 57.937,46.31 57.937,57.56 C57.937,68.82 48.781,77.97 37.527,77.97" id="Fill-371"></path>
                    <path d="M37.527,77.97 C26.273,77.97 17.117,68.82 17.117,57.56 C17.117,46.31 26.273,37.16 37.527,37.16 L37.527,42.16 C29.03,42.16 22.117,49.07 22.117,57.56 C22.117,66.06 29.03,72.97 37.527,72.97 L37.527,77.97" id="Fill-372"></path>
                    <path d="M9.621,23.66 C8.24,23.66 7.121,22.54 7.121,21.16 C7.121,19.78 8.24,18.66 9.621,18.66 C14.507,18.66 18.483,14.68 18.483,9.8 C18.483,8.42 19.602,7.3 20.983,7.3 C22.364,7.3 23.483,8.42 23.483,9.8 C23.483,17.44 17.264,23.66 9.621,23.66" id="Fill-373"></path>
                    <path d="M65.433,23.66 C57.79,23.66 51.571,17.44 51.571,9.8 C51.571,8.42 52.69,7.3 54.071,7.3 C55.452,7.3 56.571,8.42 56.571,9.8 C56.571,14.68 60.546,18.66 65.433,18.66 C66.814,18.66 67.933,19.78 67.933,21.16 C67.933,22.54 66.814,23.66 65.433,23.66" id="Fill-374"></path>
                    <path d="M20.983,107.79 C19.602,107.79 18.483,106.67 18.483,105.29 C18.483,100.4 14.507,96.42 9.621,96.42 C8.24,96.42 7.121,95.3 7.121,93.92 C7.121,92.54 8.24,91.42 9.621,91.42 C17.264,91.42 23.483,97.64 23.483,105.29 C23.483,106.67 22.364,107.79 20.983,107.79" id="Fill-375"></path>
                    <path d="M54.071,107.79 C52.69,107.79 51.571,106.67 51.571,105.29 C51.571,97.64 57.79,91.42 65.433,91.42 C66.814,91.42 67.933,92.54 67.933,93.92 C67.933,95.3 66.814,96.42 65.433,96.42 C60.546,96.42 56.571,100.4 56.571,105.29 C56.571,106.67 55.452,107.79 54.071,107.79" id="Fill-376"></path>
                </g>
            </g>
        </g>
    </g>
</svg>