<?xml version="1.0" encoding="UTF-8"?>
<svg width="68px" height="60px" viewBox="0 0 68 60" version="1.1" xmlns="http://www.w3.org/2000/svg" xmlns:xlink="http://www.w3.org/1999/xlink">
    <!-- Generator: Sketch 44.1 (41455) - http://www.bohemiancoding.com/sketch -->
    <title>Business</title>
    <desc>Created with Sketch.</desc>
    <defs></defs>
    <g id="Page-1" stroke="none" stroke-width="1" fill="none" fill-rule="evenodd">
        <g id="Toolbox-promo-page" transform="translate(-387.000000, -570.000000)" fill="#FFFFFF">
            <g id="Good-For" transform="translate(55.000000, 292.000000)">
                <g id="Business" transform="translate(332.000000, 278.000000)">
                    <path d="M5.1,13.2732 C3.942,13.2732 3,14.2152 3,15.3732 L3,54.5712 C3,55.7286 3.942,56.6712 5.1,56.6712 L62.3742,56.6712 C63.5322,56.6712 64.4742,55.7286 64.4742,54.5712 L64.4742,15.3732 C64.4742,14.2152 63.5322,13.2732 62.3742,13.2732 L5.1,13.2732 Z M62.3742,59.6712 L5.1,59.6712 C2.2878,59.6712 0,57.3828 0,54.5712 L0,15.3732 C0,12.561 2.2878,10.2732 5.1,10.2732 L62.3742,10.2732 C65.1864,10.2732 67.4742,12.561 67.4742,15.3732 L67.4742,54.5712 C67.4742,57.3828 65.1864,59.6712 62.3742,59.6712 L62.3742,59.6712 Z" id="Fill-3"></path>
                    <polygon id="Fill-4" points="16.2186 31.6818 19.2186 31.6818 19.2186 11.7732 16.2186 11.7732"></polygon>
                    <polygon id="Fill-5" points="48.2556 31.6818 51.2556 31.6818 51.2556 11.7732 48.2556 11.7732"></polygon>
                    <polygon id="Fill-6" points="1.5 33.3078 65.9742 33.3078 65.9742 30.3078 1.5 30.3078"></polygon>
                    <path d="M44.652,10.9152 L41.652,10.9152 C41.652,6.5508 38.1012,3 33.7374,3 C29.373,3 25.8222,6.5508 25.8222,10.9152 L22.8222,10.9152 C22.8222,4.8966 27.7188,0 33.7374,0 C39.756,0 44.652,4.8966 44.652,10.9152" id="Fill-7"></path>
                    <path d="M34.398,41.6274 L33.0762,41.6274 C30,41.6274 27.4968,39.1248 27.4968,36.048 L27.4968,32.4114 C27.4968,31.5828 28.1688,30.9114 28.9968,30.9114 C29.8254,30.9114 30.4968,31.5828 30.4968,32.4114 L30.4968,36.048 C30.4968,37.4706 31.6542,38.6274 33.0762,38.6274 L34.398,38.6274 C35.8206,38.6274 36.9786,37.4706 36.9786,36.048 L36.9786,32.4114 C36.9786,31.5828 37.65,30.9114 38.4786,30.9114 C39.3072,30.9114 39.9786,31.5828 39.9786,32.4114 L39.9786,36.048 C39.9786,39.1248 37.4754,41.6274 34.398,41.6274" id="Fill-8"></path>
                </g>
            </g>
        </g>
    </g>
</svg>