<?xml version="1.0" encoding="UTF-8"?>
<svg width="52px" height="60px" viewBox="0 0 52 60" version="1.1" xmlns="http://www.w3.org/2000/svg" xmlns:xlink="http://www.w3.org/1999/xlink">
    <!-- Generator: Sketch 44.1 (41455) - http://www.bohemiancoding.com/sketch -->
    <title>Classes</title>
    <desc>Created with Sketch.</desc>
    <defs></defs>
    <g id="Page-1" stroke="none" stroke-width="1" fill="none" fill-rule="evenodd">
        <g id="Toolbox-promo-page" transform="translate(-123.000000, -412.000000)" fill="#FFFFFF">
            <g id="Good-For" transform="translate(55.000000, 292.000000)">
                <g id="Classes" transform="translate(68.000000, 120.000000)">
                    <path d="M40.3566424,39.7665597 C39.4681809,39.7665597 38.5912578,39.9050212 37.7316424,40.1761751 C35.5335655,40.874252 33.7335655,42.3915597 32.672027,44.4454059 C31.6047193,46.499252 31.4085655,48.8415597 32.1066424,51.0454059 C33.2547193,54.6569443 36.5662578,57.0800212 40.3508732,57.0800212 C41.2393347,57.0800212 42.122027,56.9415597 42.9758732,56.6704059 C47.522027,55.2280982 50.0489501,50.3530982 48.6008732,45.8069443 C47.4527962,42.1954059 44.1412578,39.7665597 40.3566424,39.7665597 Z M40.3508732,59.9646366 C35.3027962,59.9646366 30.8835655,56.7338674 29.3547193,51.9165597 C28.4258732,48.9800212 28.6912578,45.8530982 30.1104886,43.1184828 C31.5239501,40.3838674 33.9239501,38.3588674 36.8604886,37.4300212 C37.997027,37.0665597 39.1739501,36.8819443 40.3566424,36.8819443 C45.4047193,36.8819443 49.8239501,40.1184828 51.3527962,44.9300212 C53.2797193,50.9934828 49.9104886,57.4954059 43.847027,59.4223289 C42.7104886,59.7800212 41.5335655,59.9646366 40.3508732,59.9646366 L40.3508732,59.9646366 Z" id="Fill-785"></path>
                    <path d="M30.7335655,52.9261751 C30.122027,52.9261751 29.5508732,52.5338674 29.3547193,51.9165597 L13.4604886,1.88002124 C13.2239501,1.124252 13.6393347,0.310790466 14.4008732,0.068482774 C15.1566424,-0.168055688 15.9701039,0.247328928 16.2124116,1.00886739 L32.1066424,51.0454059 C32.3489501,51.8011751 31.9277962,52.6146366 31.1662578,52.8569443 C31.022027,52.9030982 30.8777962,52.9261751 30.7335655,52.9261751" id="Fill-786"></path>
                    <path d="M11.5335655,39.7665597 C7.74895009,39.7665597 4.43741163,42.1954059 3.28933471,45.8069443 C1.84702702,50.3530982 4.36818086,55.2280982 8.92010394,56.6704059 C9.77395009,56.9415597 10.6566424,57.0800212 11.5393347,57.0800212 C15.3239501,57.0800212 18.6412578,54.6569443 19.7835655,51.0454059 C20.4874116,48.8415597 20.2854886,46.499252 19.2239501,44.4454059 C18.1566424,42.3915597 16.3624116,40.874252 14.1585655,40.1761751 C13.3047193,39.9050212 12.422027,39.7665597 11.5335655,39.7665597 Z M11.5393347,59.9646366 L11.5393347,59.9646366 C10.3566424,59.9646366 9.17971933,59.7800212 8.04318086,59.4223289 C1.97971933,57.4954059 -1.38374221,50.9934828 0.543180864,44.9300212 C2.07202702,40.1184828 6.48548856,36.8819443 11.5335655,36.8819443 C12.7162578,36.8819443 13.8931809,37.0665597 15.0297193,37.4300212 C17.9662578,38.3588674 20.3662578,40.3838674 21.7854886,43.1184828 C23.1989501,45.8530982 23.4701039,48.9800212 22.5354886,51.9165597 C21.0066424,56.7338674 16.5874116,59.9646366 11.5393347,59.9646366 L11.5393347,59.9646366 Z" id="Fill-787"></path>
                    <path d="M21.1624116,52.9261751 C21.0181809,52.9261751 20.8681809,52.9030982 20.7239501,52.8569443 C19.9624116,52.6146366 19.5412578,51.8011751 19.7835655,51.0454059 L35.6777962,1.00886739 C35.9201039,0.247328928 36.7277962,-0.173824918 37.4893347,0.068482774 C38.2508732,0.310790466 38.672027,1.124252 38.4297193,1.88002124 L22.5354886,51.9165597 C22.3393347,52.5338674 21.7739501,52.9261751 21.1624116,52.9261751" id="Fill-788"></path>
                    <path d="M25.7547193,36.5646366 C25.3739501,36.5646366 24.9931809,36.4146366 24.7104886,36.1146366 C24.1624116,35.5377135 24.1797193,34.6261751 24.7624116,34.0780982 L25.3508732,33.5184828 C30.8085655,28.3550212 39.0585655,20.5550212 35.7297193,2.324252 C35.5854886,1.54540585 36.1047193,0.78963662 36.8893347,0.651175082 C37.6681809,0.501175082 38.4239501,1.02617508 38.5681809,1.81079047 C42.1797193,21.5761751 32.8854886,30.3627135 27.3354886,35.6127135 L26.747027,36.1665597 C26.4701039,36.4319443 26.1124116,36.5646366 25.7547193,36.5646366" id="Fill-789"></path>
                    <path d="M25.9162578,36.5646366 C25.5643347,36.5646366 25.2066424,36.4319443 24.9239501,36.1665597 L24.3412578,35.6127135 C18.7854886,30.3627135 9.49125779,21.5761751 13.1085655,1.81079047 C13.247027,1.02617508 14.0027962,0.501175082 14.7816424,0.651175082 C15.5662578,0.78963662 16.0854886,1.54540585 15.9412578,2.324252 C12.6124116,20.5550212 20.8624116,28.3550212 26.3201039,33.5184828 L26.9143347,34.0780982 C27.4912578,34.6261751 27.5143347,35.5377135 26.9662578,36.1146366 C26.6777962,36.4146366 26.297027,36.5646366 25.9162578,36.5646366" id="Fill-790"></path>
                </g>
            </g>
        </g>
    </g>
</svg>