<?xml version="1.0" encoding="UTF-8"?>
<svg width="37px" height="60px" viewBox="0 0 37 60" version="1.1" xmlns="http://www.w3.org/2000/svg" xmlns:xlink="http://www.w3.org/1999/xlink">
    <!-- Generator: Sketch 44.1 (41455) - http://www.bohemiancoding.com/sketch -->
    <title>Comdey</title>
    <desc>Created with Sketch.</desc>
    <defs></defs>
    <g id="Page-1" stroke="none" stroke-width="1" fill="none" fill-rule="evenodd">
        <g id="Toolbox-promo-page" transform="translate(-693.000000, -410.000000)" fill="#FFFFFF">
            <g id="Good-For" transform="translate(55.000000, 292.000000)">
                <g id="Comdey" transform="translate(638.000000, 118.000000)">
                    <path d="M18.1189655,39.6982759 C8.12586207,39.6982759 0,31.5672414 0,21.5741379 C0,20.8603448 0.579310345,20.2810345 1.29310345,20.2810345 C2.00689655,20.2810345 2.5862069,20.8603448 2.5862069,21.5741379 C2.5862069,30.1448276 9.55344828,37.112069 18.1189655,37.112069 C26.6896552,37.112069 33.6568966,30.1448276 33.6568966,21.5741379 C33.6568966,20.8603448 34.2362069,20.2810345 34.95,20.2810345 C35.6637931,20.2810345 36.2431034,20.8603448 36.2431034,21.5741379 C36.2431034,31.5672414 28.112069,39.6982759 18.1189655,39.6982759" id="Fill-1268"></path>
                    <path d="M18.1189655,59.5034483 C17.4051724,59.5034483 16.8258621,58.9241379 16.8258621,58.2103448 L16.8258621,38.4051724 C16.8258621,37.6913793 17.4051724,37.112069 18.1189655,37.112069 C18.8327586,37.112069 19.412069,37.6913793 19.412069,38.4051724 L19.412069,58.2103448 C19.412069,58.9241379 18.8327586,59.5034483 18.1189655,59.5034483" id="Fill-1269"></path>
                    <path d="M28.3603448,23.0896552 C27.6465517,23.0896552 27.0672414,22.5103448 27.0672414,21.7965517 L27.0672414,11.5344828 C27.0672414,6.6 23.0534483,2.5862069 18.1189655,2.5862069 C13.1896552,2.5862069 9.17586207,6.6 9.17586207,11.5344828 L9.17586207,21.7965517 C9.17586207,22.5103448 8.59655172,23.0896552 7.88275862,23.0896552 C7.16896552,23.0896552 6.58965517,22.5103448 6.58965517,21.7965517 L6.58965517,11.5344828 C6.58965517,5.17758621 11.762069,0 18.1189655,0 C24.4810345,0 29.6534483,5.17758621 29.6534483,11.5344828 L29.6534483,21.7965517 C29.6534483,22.5103448 29.0741379,23.0896552 28.3603448,23.0896552" id="Fill-1270"></path>
                    <path d="M6.94655172,35.4465517 C6.58965517,35.4465517 6.23275862,35.3017241 5.97931034,35.012069 C5.50344828,34.4793103 5.55,33.662069 6.08275862,33.1862069 C9.40344828,30.237931 13.6758621,28.6137931 18.1241379,28.6137931 C22.5672414,28.6137931 26.8396552,30.237931 30.1551724,33.1862069 C30.687931,33.662069 30.7396552,34.4793103 30.2637931,35.012069 C29.787931,35.5448276 28.9706897,35.5913793 28.437931,35.1206897 C25.5931034,32.5913793 21.9310345,31.2 18.1241379,31.2 C14.312069,31.2 10.6448276,32.5913793 7.80517241,35.1206897 C7.55689655,35.337931 7.25172414,35.4465517 6.94655172,35.4465517" id="Fill-1271"></path>
                    <path d="M31.2672414,59.5034483 L4.97586207,59.5034483 C4.26206897,59.5034483 3.68275862,58.9241379 3.68275862,58.2103448 C3.68275862,57.4965517 4.26206897,56.9172414 4.97586207,56.9172414 L31.2672414,56.9172414 C31.9810345,56.9172414 32.5603448,57.4965517 32.5603448,58.2103448 C32.5603448,58.9241379 31.9810345,59.5034483 31.2672414,59.5034483" id="Fill-1272"></path>
                </g>
            </g>
        </g>
    </g>
</svg>