<?xml version="1.0" encoding="UTF-8"?>
<svg width="114px" height="87px" viewBox="0 0 114 87" version="1.1" xmlns="http://www.w3.org/2000/svg" xmlns:xlink="http://www.w3.org/1999/xlink">
    <!-- Generator: Sketch 44.1 (41455) - http://www.bohemiancoding.com/sketch -->
    <title>Create Event</title>
    <desc>Created with Sketch.</desc>
    <defs></defs>
    <g id="Page-1" stroke="none" stroke-width="1" fill="none" fill-rule="evenodd">
        <g id="Toolbox-promo-page" transform="translate(-89.000000, -889.000000)" fill="#2F2FAE">
            <g id="How-to-promote-Facebook-events" transform="translate(43.000000, 729.000000)">
                <g id="Create-Event" transform="translate(46.000000, 160.000000)">
                    <path d="M6.5,5 C5.68,5 5,5.68 5,6.5 L5,79.83 C5,80.64 5.68,81.33 6.5,81.33 L106.67,81.33 C107.48,81.33 108.17,80.64 108.17,79.83 L108.17,6.5 C108.17,5.68 107.48,5 106.67,5 L6.5,5 Z M106.67,86.33 L6.5,86.33 C2.91,86.33 0,83.41 0,79.83 L0,6.5 C0,2.91 2.91,0 6.5,0 L106.67,0 C110.25,0 113.17,2.91 113.17,6.5 L113.17,79.83 C113.17,83.41 110.25,86.33 106.67,86.33 L106.67,86.33 Z" id="Fill-794"></path>
                    <path d="M110.67,25.33 L2.5,25.33 C1.12,25.33 0,24.21 0,22.83 C0,21.45 1.12,20.33 2.5,20.33 L110.67,20.33 C112.05,20.33 113.17,21.45 113.17,22.83 C113.17,24.21 112.05,25.33 110.67,25.33" id="Fill-795"></path>
                    <path d="M18.23,12.71 C18.23,13.94 17.24,14.93 16.02,14.93 C14.79,14.93 13.8,13.94 13.8,12.71 C13.8,11.49 14.79,10.5 16.02,10.5 C17.24,10.5 18.23,11.49 18.23,12.71" id="Fill-796"></path>
                    <path d="M27.34,12.71 C27.34,13.94 26.35,14.93 25.13,14.93 C23.91,14.93 22.91,13.94 22.91,12.71 C22.91,11.49 23.91,10.5 25.13,10.5 C26.35,10.5 27.34,11.49 27.34,12.71" id="Fill-797"></path>
                    <path d="M100.18,81.83 L95.18,81.83 L95.18,77.67 L84.73,77.67 C83.57,77.67 82.57,76.87 82.3,75.75 C81.7,73.19 80.72,70.75 79.4,68.49 C78.82,67.51 78.98,66.26 79.79,65.46 L87.77,57.48 L81.89,51.6 L74.13,59.36 C73.3,60.19 71.99,60.33 71,59.68 C68.43,58.01 65.63,56.81 62.67,56.11 C61.54,55.85 60.74,54.84 60.74,53.68 L60.74,43.23 L52.42,43.23 L52.42,53.68 C52.42,54.84 51.63,55.85 50.5,56.11 C47.94,56.72 45.5,57.69 43.25,59.02 C42.26,59.59 41.02,59.43 40.21,58.63 L33.19,51.6 L27.3,57.48 L34.11,64.28 C34.94,65.12 35.08,66.43 34.43,67.42 C32.77,69.97 31.57,72.77 30.86,75.75 C30.6,76.87 29.59,77.67 28.43,77.67 L17.98,77.67 L17.98,81.83 L12.98,81.83 L12.98,75.17 C12.98,73.79 14.1,72.67 15.48,72.67 L26.52,72.67 C27.18,70.5 28.07,68.41 29.18,66.43 L22,59.25 C21.02,58.27 21.02,56.69 22,55.71 L31.42,46.29 C31.89,45.83 32.52,45.56 33.19,45.56 C33.85,45.56 34.49,45.83 34.95,46.29 L42.43,53.77 C44.03,52.96 45.7,52.29 47.42,51.77 L47.42,40.73 C47.42,39.35 48.54,38.23 49.92,38.23 L63.24,38.23 C64.62,38.23 65.74,39.35 65.74,40.73 L65.74,51.76 C67.91,52.42 70,53.32 71.98,54.43 L80.12,46.29 C80.59,45.82 81.23,45.56 81.89,45.56 C82.55,45.56 83.19,45.82 83.66,46.29 L93.07,55.71 C94.05,56.69 94.05,58.27 93.07,59.25 L84.64,67.68 C85.45,69.28 86.12,70.95 86.65,72.67 L97.68,72.67 C99.06,72.67 100.18,73.79 100.18,75.17 L100.18,81.83" id="Fill-798"></path>
                    <path d="M69.99,81.83 L64.99,81.83 C64.99,77.19 61.22,73.42 56.58,73.42 C51.95,73.42 48.18,77.19 48.18,81.83 L43.18,81.83 C43.18,74.44 49.19,68.42 56.58,68.42 C63.97,68.42 69.99,74.44 69.99,81.83" id="Fill-799"></path>
                </g>
            </g>
        </g>
    </g>
</svg>