<?xml version="1.0" encoding="UTF-8"?>
<svg width="307px" height="56px" viewBox="0 0 307 56" version="1.1" xmlns="http://www.w3.org/2000/svg" xmlns:xlink="http://www.w3.org/1999/xlink">
    <!-- Generator: Sketch 44.1 (41455) - http://www.bohemiancoding.com/sketch -->
    <title>Logo Copy</title>
    <desc>Created with Sketch.</desc>
    <defs></defs>
    <g id="Page-1" stroke="none" stroke-width="1" fill="none" fill-rule="evenodd">
        <g id="Logo-Copy" fill="#FFFFFF">
            <g id="Speaker" transform="translate(29.168518, 27.131747) rotate(-40.000000) translate(-29.168518, -27.131747) translate(5.168518, 11.631747)">
                <path d="M1.97959046,18.8654971 L35.5851181,25.1645539 L35.5851181,5.53097574 L1.98750882,11.8300326 L1.97959046,18.8654971 Z M35.9374852,27.2154096 C35.8305873,27.2154096 35.7197302,27.2074913 35.6128323,27.1876953 L1.58367237,20.8054957 C0.69285666,20.6392101 0,19.7998638 0,18.8971705 L0,11.8023183 C0,10.8996251 0.69285666,10.0602787 1.58367237,9.89399311 L35.6128323,3.51179347 C35.7197302,3.49199757 35.8305873,3.48407921 35.9374852,3.48407921 C36.8480968,3.48407921 37.5647085,4.20860931 37.5647085,5.13109847 L37.5647085,25.5683904 C37.5647085,26.4908795 36.8480968,27.2154096 35.9374852,27.2154096 L35.9374852,27.2154096 Z" id="Fill-1278"></path>
                <path d="M15.733785,30.8538969 C15.1953364,30.8538969 14.6489694,30.8024275 14.1105208,30.6955296 C11.9210937,30.2679381 10.0286053,29.0128778 8.78146327,27.1599811 C7.53828046,25.3070844 7.08693384,23.0820247 7.51848456,20.8925977 C7.62142326,20.3581083 8.14007596,20.0057412 8.67852457,20.1126391 C9.21301399,20.2155778 9.56538109,20.7381896 9.45848321,21.2726791 C9.13383037,22.9434534 9.47431993,24.641942 10.4245234,26.0553696 C11.3747268,27.4687972 12.8198278,28.426919 14.4906022,28.7515718 C16.1613765,29.0801838 17.8598651,28.7357351 19.2693335,27.7855317 C20.6827611,26.8353282 21.6408829,25.3941864 21.9694949,23.723412 C22.0724336,23.1849634 22.5950455,22.8325963 23.1295349,22.9394942 C23.6679835,23.0463921 24.0163914,23.5650448 23.9094935,24.1034934 C23.481902,26.2929205 22.2268417,28.1854089 20.3779042,29.4285917 C18.9803133,30.3669176 17.376845,30.8538969 15.733785,30.8538969" id="Fill-1279"></path>
                <path d="M46.3857636,16.0861521 L41.4447058,16.0861521 C40.8983389,16.0861521 40.4549106,15.6427238 40.4549106,15.0963568 C40.4549106,14.5499899 40.8983389,14.1065616 41.4447058,14.1065616 L46.3857636,14.1065616 C46.9321306,14.1065616 47.3755588,14.5499899 47.3755588,15.0963568 C47.3755588,15.6427238 46.9321306,16.0861521 46.3857636,16.0861521" id="Fill-1280"></path>
                <path d="M46.3857636,22.7494535 L41.4447058,22.7494535 C40.8983389,22.7494535 40.4549106,22.3060253 40.4549106,21.7596583 C40.4549106,21.2132913 40.8983389,20.7698631 41.4447058,20.7698631 L46.3857636,20.7698631 C46.9321306,20.7698631 47.3755588,21.2132913 47.3755588,21.7596583 C47.3755588,22.3060253 46.9321306,22.7494535 46.3857636,22.7494535" id="Fill-1281"></path>
                <path d="M46.3857636,9.74354423 L41.4447058,9.74354423 C40.8983389,9.74354423 40.4549106,9.30011597 40.4549106,8.753749 C40.4549106,8.20738204 40.8983389,7.76395378 41.4447058,7.76395378 L46.3857636,7.76395378 C46.9321306,7.76395378 47.3755588,8.20738204 47.3755588,8.753749 C47.3755588,9.30011597 46.9321306,9.74354423 46.3857636,9.74354423" id="Fill-1282"></path>
                <path d="M36.5749133,30.8538969 C36.0285463,30.8538969 35.5851181,30.4104686 35.5851181,29.8641016 L35.5851181,0.989795229 C35.5851181,0.443428263 36.0285463,0 36.5749133,0 C37.1212803,0 37.5647085,0.443428263 37.5647085,0.989795229 L37.5647085,29.8641016 C37.5647085,30.4104686 37.1212803,30.8538969 36.5749133,30.8538969" id="Fill-1283"></path>
            </g>
            <text id="Event-Marketing-Tool" font-family="Rubik-Black, Rubik" font-size="24" font-weight="700" line-spacing="24">
                <tspan x="59" y="26">Event Marketing</tspan>
                <tspan x="59" y="50">Toolbox</tspan>
            </text>
        </g>
    </g>
</svg>