<?xml version="1.0" encoding="UTF-8"?>
<svg width="60px" height="60px" viewBox="0 0 60 60" version="1.1" xmlns="http://www.w3.org/2000/svg" xmlns:xlink="http://www.w3.org/1999/xlink">
    <!-- Generator: Sketch 44.1 (41455) - http://www.bohemiancoding.com/sketch -->
    <title>Festival</title>
    <desc>Created with Sketch.</desc>
    <defs></defs>
    <g id="Page-1" stroke="none" stroke-width="1" fill="none" fill-rule="evenodd">
        <g id="Toolbox-promo-page" transform="translate(-863.000000, -410.000000)" fill="#FFFFFF">
            <g id="Good-For" transform="translate(55.000000, 292.000000)">
                <g id="Festival" transform="translate(808.000000, 118.000000)">
                    <path d="M29.7823529,2.94117647 C14.9823529,2.94117647 2.94117647,14.9823529 2.94117647,29.7823529 C2.94117647,44.5823529 14.9823529,56.6235294 29.7823529,56.6235294 C44.5823529,56.6235294 56.6176471,44.5823529 56.6176471,29.7823529 C56.6176471,14.9823529 44.5823529,2.94117647 29.7823529,2.94117647 Z M29.7823529,59.5647059 L29.7823529,58.0941176 L29.7823529,59.5647059 C13.3588235,59.5647059 0,46.2 0,29.7823529 C0,13.3588235 13.3588235,0 29.7823529,0 C46.2,0 59.5588235,13.3588235 59.5588235,29.7823529 C59.5588235,46.2 46.2,59.5647059 29.7823529,59.5647059 L29.7823529,59.5647059 Z" id="Fill-1591"></path>
                    <path d="M14.9,25.2470588 C16.1411765,26.1470588 21.5235294,30.0823529 23.3,31.3764706 L24.1588235,32.0058824 L23.8294118,33.0176471 C21.6352941,39.7647059 20.8941176,42.0176471 20.6411765,42.7882353 L29.7823529,36.1294118 L30.6470588,36.7647059 C33.1588235,38.5941176 37.6470588,41.8647059 38.9176471,42.7882353 C38.6647059,42.0235294 37.9294118,39.7764706 35.7294118,33.0176471 L35.4,32.0058824 L36.2588235,31.3764706 C38.5117647,29.7294118 43.4294118,26.1411765 44.6647059,25.2470588 L33.2647059,25.2470588 L29.7764706,14.5294118 L26.3117647,25.2470588 L14.9,25.2470588 Z M39.1647059,45.9411765 C38.5941176,45.9411765 38.0411765,45.7647059 37.5647059,45.4411765 C37.3882353,45.3117647 32,41.3882353 29.7823529,39.7705882 L22.0235294,45.4176471 C21.5117647,45.7705882 20.9588235,45.9411765 20.3882353,45.9411765 C18.8411765,45.9411765 17.5823529,44.6764706 17.5823529,43.1235294 C17.5823529,42.8235294 17.6352941,42.5117647 17.7352941,42.1941176 L17.7705882,42.1117647 C17.8529412,41.8647059 19.4647059,36.9235294 20.7058824,33.1235294 C17.4470588,30.7411765 13.2058824,27.6470588 12.9647059,27.4764706 C12.2,26.9411765 11.7529412,26.0823529 11.7529412,25.1647059 C11.7529412,23.5882353 13.0058824,22.3058824 14.5470588,22.3058824 L24.1705882,22.3058824 L27.0941176,13.2647059 C27.4176471,12.1117647 28.5294118,11.2647059 29.7823529,11.2647059 C31.0176471,11.2647059 32.1176471,12.0941176 32.4705882,13.2882353 L35.4,22.3058824 L45.0235294,22.3058824 C46.5588235,22.3058824 47.8058824,23.5823529 47.8058824,25.1529412 C47.8058824,26.0764706 47.3588235,26.9411765 46.6058824,27.4705882 C46.3529412,27.6470588 42.1117647,30.7411765 38.8529412,33.1235294 C40.0941176,36.9235294 41.7058824,41.8764706 41.8058824,42.1588235 C41.9235294,42.5058824 41.9764706,42.8176471 41.9764706,43.1235294 C41.9764706,44.6764706 40.7176471,45.9411765 39.1647059,45.9411765 L39.1647059,45.9411765 Z" id="Fill-1592"></path>
                </g>
            </g>
        </g>
    </g>
</svg>