<?xml version="1.0" encoding="UTF-8"?>
<svg width="29px" height="60px" viewBox="0 0 29 60" version="1.1" xmlns="http://www.w3.org/2000/svg" xmlns:xlink="http://www.w3.org/1999/xlink">
    <!-- Generator: Sketch 44.1 (41455) - http://www.bohemiancoding.com/sketch -->
    <title>Man</title>
    <desc>Created with Sketch.</desc>
    <defs></defs>
    <g id="Page-1" stroke="none" stroke-width="1" fill="none" fill-rule="evenodd">
        <g id="Toolbox-promo-page" transform="translate(-600.000000, -570.000000)" fill="#FFFFFF">
            <g id="Good-For" transform="translate(55.000000, 292.000000)">
                <g id="Man" transform="translate(545.000000, 278.000000)">
                    <path d="M14.0333333,2.38095238 C11.6619048,2.38095238 9.72857143,4.30952381 9.72857143,6.68571429 C9.72857143,9.06190476 11.6619048,10.9904762 14.0333333,10.9904762 C16.4095238,10.9904762 18.3428571,9.06190476 18.3428571,6.68571429 C18.3428571,4.30952381 16.4095238,2.38095238 14.0333333,2.38095238 Z M14.0333333,13.3714286 C10.347619,13.3714286 7.34761905,10.3714286 7.34761905,6.68571429 C7.34761905,3 10.347619,0 14.0333333,0 C17.7238095,0 20.7238095,3 20.7238095,6.68571429 C20.7238095,10.3714286 17.7238095,13.3714286 14.0333333,13.3714286 L14.0333333,13.3714286 Z" id="Fill-940"></path>
                    <path d="M26.8809524,43.0761905 C26.2238095,43.0761905 25.6904762,42.5428571 25.6904762,41.8857143 L25.6904762,22.2904762 C25.6904762,19.7952381 23.6619048,17.7666667 21.1666667,17.7666667 L6.9047619,17.7666667 C4.40952381,17.7666667 2.38095238,19.7952381 2.38095238,22.2904762 L2.38095238,41.8857143 C2.38095238,42.5428571 1.84761905,43.0761905 1.19047619,43.0761905 C0.533333333,43.0761905 0,42.5428571 0,41.8857143 L0,22.2904762 C0,18.4809524 3.0952381,15.3857143 6.9047619,15.3857143 L21.1666667,15.3857143 C24.9761905,15.3857143 28.0714286,18.4809524 28.0714286,22.2904762 L28.0714286,41.8857143 C28.0714286,42.5428571 27.5380952,43.0761905 26.8809524,43.0761905" id="Fill-941"></path>
                    <path d="M16.0952381,59.9047619 L11.9761905,59.9047619 C8.17142857,59.9047619 5.07142857,56.8047619 5.07142857,53 L5.07142857,25.9761905 C5.07142857,25.3190476 5.6047619,24.7857143 6.26190476,24.7857143 C6.91904762,24.7857143 7.45238095,25.3190476 7.45238095,25.9761905 L7.45238095,53 C7.45238095,55.4952381 9.48095238,57.5238095 11.9761905,57.5238095 L16.0952381,57.5238095 C18.5904762,57.5238095 20.6190476,55.4952381 20.6190476,53 L20.6190476,25.9761905 C20.6190476,25.3190476 21.152381,24.7857143 21.8095238,24.7857143 C22.4666667,24.7857143 23,25.3190476 23,25.9761905 L23,53 C23,56.8047619 19.9,59.9047619 16.0952381,59.9047619" id="Fill-942"></path>
                    <path d="M14.0333333,59.4285714 C13.3761905,59.4285714 12.8428571,58.8952381 12.8428571,58.2380952 L12.8428571,42.447619 C12.8428571,41.7904762 13.3761905,41.2571429 14.0333333,41.2571429 C14.6952381,41.2571429 15.2238095,41.7904762 15.2238095,42.447619 L15.2238095,58.2380952 C15.2238095,58.8952381 14.6952381,59.4285714 14.0333333,59.4285714" id="Fill-943"></path>
                </g>
            </g>
        </g>
    </g>
</svg>