<?xml version="1.0" encoding="UTF-8"?>
<svg width="50px" height="67px" viewBox="0 0 50 67" version="1.1" xmlns="http://www.w3.org/2000/svg" xmlns:xlink="http://www.w3.org/1999/xlink">
    <!-- Generator: Sketch 44.1 (41455) - http://www.bohemiancoding.com/sketch -->
    <title>Music</title>
    <desc>Created with Sketch.</desc>
    <defs></defs>
    <g id="Page-1" stroke="none" stroke-width="1" fill="none" fill-rule="evenodd">
        <g id="Toolbox-promo-page" transform="translate(-487.000000, -410.000000)" fill="#FFFFFF">
            <g id="Good-For" transform="translate(55.000000, 292.000000)">
                <g id="Music" transform="translate(432.418033, 118.000000)">
                    <path d="M6.8647541,2.74590164 C4.59114754,2.74590164 2.74590164,4.59114754 2.74590164,6.8647541 L2.74590164,56.4722131 C2.74590164,58.7403279 4.59114754,60.5910656 6.8647541,60.5910656 L42.5120492,60.5910656 C44.7801639,60.5910656 46.6309016,58.7403279 46.6309016,56.4722131 L46.6309016,6.8647541 C46.6309016,4.59114754 44.7801639,2.74590164 42.5120492,2.74590164 L6.8647541,2.74590164 Z M42.5120492,63.3369672 L6.8647541,63.3369672 C3.08090164,63.3369672 0,60.2560656 0,56.4722131 L0,6.8647541 C0,3.07540984 3.08090164,0 6.8647541,0 L42.5120492,0 C46.2959016,0 49.3768033,3.07540984 49.3768033,6.8647541 L49.3768033,56.4722131 C49.3768033,60.2560656 46.2959016,63.3369672 42.5120492,63.3369672 L42.5120492,63.3369672 Z" id="Fill-1439"></path>
                    <path d="M24.6856557,29.0681148 C18.479918,29.0681148 13.427459,34.1205738 13.427459,40.3263115 C13.427459,46.5320492 18.479918,51.5845082 24.6856557,51.5845082 C30.8968852,51.5845082 35.9438525,46.5320492 35.9438525,40.3263115 C35.9438525,34.1205738 30.8968852,29.0681148 24.6856557,29.0681148 Z M24.6856557,54.3304098 C16.9641803,54.3304098 10.6815574,48.0477869 10.6815574,40.3263115 C10.6815574,32.6048361 16.9641803,26.3222131 24.6856557,26.3222131 C32.4071311,26.3222131 38.6897541,32.6048361 38.6897541,40.3263115 C38.6897541,48.0477869 32.4071311,54.3304098 24.6856557,54.3304098 L24.6856557,54.3304098 Z" id="Fill-1440"></path>
                    <path d="M24.6856557,10.5607377 C22.4669672,10.5607377 20.6601639,12.367541 20.6601639,14.5917213 C20.6601639,16.8104098 22.4669672,18.6172131 24.6856557,18.6172131 C26.9098361,18.6172131 28.7166393,16.8104098 28.7166393,14.5917213 C28.7166393,12.367541 26.9098361,10.5607377 24.6856557,10.5607377 Z M24.6856557,21.3631148 C20.9512295,21.3631148 17.9142623,18.3261475 17.9142623,14.5917213 C17.9142623,10.8572951 20.9512295,7.81483607 24.6856557,7.81483607 C28.420082,7.81483607 31.462541,10.8572951 31.462541,14.5917213 C31.462541,18.3261475 28.420082,21.3631148 24.6856557,21.3631148 L24.6856557,21.3631148 Z" id="Fill-1441"></path>
                    <path d="M24.6856557,37.2234426 C22.9777049,37.2234426 21.5827869,38.6183607 21.5827869,40.3263115 C21.5827869,42.0342623 22.9777049,43.4291803 24.6856557,43.4291803 C26.3990984,43.4291803 27.7885246,42.0342623 27.7885246,40.3263115 C27.7885246,38.6183607 26.3990984,37.2234426 24.6856557,37.2234426 Z M24.6856557,46.175082 C21.4619672,46.175082 18.8368852,43.55 18.8368852,40.3263115 C18.8368852,37.102623 21.4619672,34.477541 24.6856557,34.477541 C27.9093443,34.477541 30.5344262,37.102623 30.5344262,40.3263115 C30.5344262,43.55 27.9093443,46.175082 24.6856557,46.175082 L24.6856557,46.175082 Z" id="Fill-1442"></path>
                    <path d="M7.79836066,66.9615574 C7.0404918,66.9615574 6.42540984,66.3464754 6.42540984,65.5886066 L6.42540984,62.5131967 C6.42540984,61.7553279 7.0404918,61.1402459 7.79836066,61.1402459 C8.55622951,61.1402459 9.17131148,61.7553279 9.17131148,62.5131967 L9.17131148,65.5886066 C9.17131148,66.3464754 8.55622951,66.9615574 7.79836066,66.9615574" id="Fill-1443"></path>
                    <path d="M41.5729508,66.9615574 C40.815082,66.9615574 40.2,66.3464754 40.2,65.5886066 L40.2,62.5131967 C40.2,61.7553279 40.815082,61.1402459 41.5729508,61.1402459 C42.3308197,61.1402459 42.9459016,61.7553279 42.9459016,62.5131967 L42.9459016,65.5886066 C42.9459016,66.3464754 42.3308197,66.9615574 41.5729508,66.9615574" id="Fill-1444"></path>
                </g>
            </g>
        </g>
    </g>
</svg>