<?xml version="1.0" encoding="UTF-8"?>
<svg width="79px" height="60px" viewBox="0 0 79 60" version="1.1" xmlns="http://www.w3.org/2000/svg" xmlns:xlink="http://www.w3.org/1999/xlink">
    <!-- Generator: Sketch 44.1 (41455) - http://www.bohemiancoding.com/sketch -->
    <title>Party</title>
    <desc>Created with Sketch.</desc>
    <defs></defs>
    <g id="Page-1" stroke="none" stroke-width="1" fill="none" fill-rule="evenodd">
        <g id="Toolbox-promo-page" transform="translate(-191.000000, -570.000000)" fill="#FFFFFF">
            <g id="Good-For" transform="translate(55.000000, 292.000000)">
                <g id="Party" transform="translate(175.286703, 308.000000) rotate(-360.000000) translate(-175.286703, -308.000000) translate(136.031383, 278.000000)">
                    <path d="M7.9787234,3.19148936 C5.33617021,3.19148936 3.19148936,5.33617021 3.19148936,7.9787234 L3.19148936,51.7404255 C3.19148936,54.3765957 5.33617021,56.5276596 7.9787234,56.5276596 L70.2829787,56.5276596 C72.9191489,56.5276596 75.0702128,54.3765957 75.0702128,51.7404255 L75.0702128,7.9787234 C75.0702128,5.33617021 72.9191489,3.19148936 70.2829787,3.19148936 L7.9787234,3.19148936 Z M70.2829787,59.7191489 L7.9787234,59.7191489 C3.58085106,59.7191489 0,56.1382979 0,51.7404255 L0,7.9787234 C0,3.58085106 3.58085106,0 7.9787234,0 L70.2829787,0 C74.6808511,0 78.2617021,3.58085106 78.2617021,7.9787234 L78.2617021,51.7404255 C78.2617021,56.1382979 74.6808511,59.7191489 70.2829787,59.7191489 L70.2829787,59.7191489 Z" id="Fill-1208"></path>
                    <path d="M30.6702128,9.84255319 C19.5574468,9.84255319 10.512766,18.887234 10.512766,30 C10.512766,41.1191489 19.5574468,50.1638298 30.6702128,50.1638298 C41.7893617,50.1638298 50.8340426,41.1191489 50.8340426,30 C50.8340426,18.887234 41.7893617,9.84255319 30.6702128,9.84255319 Z M30.6702128,53.3553191 C17.7957447,53.3553191 7.3212766,42.8744681 7.3212766,30 C7.3212766,17.1255319 17.7957447,6.65106383 30.6702128,6.65106383 C43.5510638,6.65106383 54.0255319,17.1255319 54.0255319,30 C54.0255319,42.8744681 43.5510638,53.3553191 30.6702128,53.3553191 L30.6702128,53.3553191 Z" id="Fill-1209"></path>
                    <path d="M30.6702128,25.4361702 C28.1553191,25.4361702 26.106383,27.4851064 26.106383,30 C26.106383,32.5212766 28.1553191,34.5638298 30.6702128,34.5638298 C33.1914894,34.5638298 35.2340426,32.5212766 35.2340426,30 C35.2340426,27.4851064 33.1914894,25.4361702 30.6702128,25.4361702 Z M30.6702128,37.7553191 C26.393617,37.7553191 22.9148936,34.2765957 22.9148936,30 C22.9148936,25.7234043 26.393617,22.2446809 30.6702128,22.2446809 C34.9468085,22.2446809 38.4255319,25.7234043 38.4255319,30 C38.4255319,34.2765957 34.9468085,37.7553191 30.6702128,37.7553191 L30.6702128,37.7553191 Z" id="Fill-1210"></path>
                    <path d="M66.3319149,40.1042553 C65.4510638,40.1042553 64.7361702,39.3893617 64.7361702,38.5085106 L64.7361702,28.7297872 C64.7361702,27.8425532 65.4510638,27.1340426 66.3319149,27.1340426 C67.212766,27.1340426 67.9276596,27.8425532 67.9276596,28.7297872 L67.9276596,38.5085106 C67.9276596,39.3893617 67.212766,40.1042553 66.3319149,40.1042553" id="Fill-1211"></path>
                    <path d="M66.3319149,50.106383 C65.4510638,50.106383 64.7361702,49.3914894 64.7361702,48.5106383 L64.7361702,45.6638298 C64.7361702,44.7829787 65.4510638,44.0680851 66.3319149,44.0680851 C67.212766,44.0680851 67.9276596,44.7829787 67.9276596,45.6638298 L67.9276596,48.5106383 C67.9276596,49.3914894 67.212766,50.106383 66.3319149,50.106383" id="Fill-1212"></path>
                    <path d="M69.8170213,46.0148936 L62.8531915,46.0148936 C61.9723404,46.0148936 61.2574468,45.306383 61.2574468,44.4191489 C61.2574468,43.5382979 61.9723404,42.8234043 62.8531915,42.8234043 L69.8170213,42.8234043 C70.6978723,42.8234043 71.412766,43.5382979 71.412766,44.4191489 C71.412766,45.306383 70.6978723,46.0148936 69.8170213,46.0148936" id="Fill-1213"></path>
                    <path d="M64.0851064,9.51702128 C61.4808511,9.51702128 59.3617021,11.6361702 59.3617021,14.2404255 C59.3617021,16.8446809 61.4808511,18.9638298 64.0851064,18.9638298 C66.6893617,18.9638298 68.8085106,16.8446809 68.8085106,14.2404255 C68.8085106,11.6361702 66.6893617,9.51702128 64.0851064,9.51702128 Z M64.0851064,22.1553191 C59.7255319,22.1553191 56.1702128,18.606383 56.1702128,14.2404255 C56.1702128,9.87446809 59.7255319,6.32553191 64.0851064,6.32553191 C68.4510638,6.32553191 72,9.87446809 72,14.2404255 C72,18.606383 68.4510638,22.1553191 64.0851064,22.1553191 L64.0851064,22.1553191 Z" id="Fill-1214"></path>
                    <path d="M40.9914894,39.6 C40.5893617,39.6 40.187234,39.4468085 39.8808511,39.1468085 C39.2489362,38.5340426 39.2361702,37.5255319 39.8489362,36.893617 L62.9425532,13.1297872 C63.5553191,12.4978723 64.5702128,12.4787234 65.2021277,13.0978723 C65.8340426,13.7106383 65.8468085,14.7191489 65.2340426,15.3510638 L42.1340426,39.1148936 C41.8212766,39.4404255 41.406383,39.6 40.9914894,39.6" id="Fill-1215"></path>
                </g>
            </g>
        </g>
    </g>
</svg>