<?xml version="1.0" encoding="UTF-8"?>
<svg width="120px" height="78px" viewBox="0 0 120 78" version="1.1" xmlns="http://www.w3.org/2000/svg" xmlns:xlink="http://www.w3.org/1999/xlink">
    <!-- Generator: Sketch 44.1 (41455) - http://www.bohemiancoding.com/sketch -->
    <title>Promote</title>
    <desc>Created with Sketch.</desc>
    <defs></defs>
    <g id="Page-1" stroke="none" stroke-width="1" fill="none" fill-rule="evenodd">
        <g id="Toolbox-promo-page" transform="translate(-327.000000, -893.000000)" fill="#2F2FAE">
            <g id="How-to-promote-Facebook-events" transform="translate(43.000000, 729.000000)">
                <g id="Promote" transform="translate(284.000000, 164.000000)">
                    <path d="M5,47.65 L89.88,63.56 L89.88,13.97 L5.02,29.88 L5,47.65 Z M90.77,68.74 C90.5,68.74 90.22,68.72 89.95,68.67 L4,52.55 C1.75,52.13 0,50.01 0,47.73 L0,29.81 C0,27.53 1.75,25.41 4,24.99 L89.95,8.87 C90.22,8.82 90.5,8.8 90.77,8.8 C93.07,8.8 94.88,10.63 94.88,12.96 L94.88,64.58 C94.88,66.91 93.07,68.74 90.77,68.74 L90.77,68.74 Z" id="Fill-1278"></path>
                    <path d="M39.74,77.93 C38.38,77.93 37,77.8 35.64,77.53 C30.11,76.45 25.33,73.28 22.18,68.6 C19.04,63.92 17.9,58.3 18.99,52.77 C19.25,51.42 20.56,50.53 21.92,50.8 C23.27,51.06 24.16,52.38 23.89,53.73 C23.07,57.95 23.93,62.24 26.33,65.81 C28.73,69.38 32.38,71.8 36.6,72.62 C40.82,73.45 45.11,72.58 48.67,70.18 C52.24,67.78 54.66,64.14 55.49,59.92 C55.75,58.56 57.07,57.67 58.42,57.94 C59.78,58.21 60.66,59.52 60.39,60.88 C59.31,66.41 56.14,71.19 51.47,74.33 C47.94,76.7 43.89,77.93 39.74,77.93" id="Fill-1279"></path>
                    <path d="M117.16,40.63 L104.68,40.63 C103.3,40.63 102.18,39.51 102.18,38.13 C102.18,36.75 103.3,35.63 104.68,35.63 L117.16,35.63 C118.54,35.63 119.66,36.75 119.66,38.13 C119.66,39.51 118.54,40.63 117.16,40.63" id="Fill-1280"></path>
                    <path d="M117.16,57.46 L104.68,57.46 C103.3,57.46 102.18,56.34 102.18,54.96 C102.18,53.58 103.3,52.46 104.68,52.46 L117.16,52.46 C118.54,52.46 119.66,53.58 119.66,54.96 C119.66,56.34 118.54,57.46 117.16,57.46" id="Fill-1281"></path>
                    <path d="M117.16,24.61 L104.68,24.61 C103.3,24.61 102.18,23.49 102.18,22.11 C102.18,20.73 103.3,19.61 104.68,19.61 L117.16,19.61 C118.54,19.61 119.66,20.73 119.66,22.11 C119.66,23.49 118.54,24.61 117.16,24.61" id="Fill-1282"></path>
                    <path d="M92.38,77.93 C91,77.93 89.88,76.81 89.88,75.43 L89.88,2.5 C89.88,1.12 91,0 92.38,0 C93.76,0 94.88,1.12 94.88,2.5 L94.88,75.43 C94.88,76.81 93.76,77.93 92.38,77.93" id="Fill-1283"></path>
                </g>
            </g>
        </g>
    </g>
</svg>