<?xml version="1.0" encoding="UTF-8"?>
<svg width="66px" height="65px" viewBox="0 0 66 65" version="1.1" xmlns="http://www.w3.org/2000/svg" xmlns:xlink="http://www.w3.org/1999/xlink">
    <!-- Generator: Sketch 44.1 (41455) - http://www.bohemiancoding.com/sketch -->
    <title>Business</title>
    <desc>Created with Sketch.</desc>
    <defs></defs>
    <g id="Page-1" stroke="none" stroke-width="1" fill="none" fill-rule="evenodd">
        <g id="Toolbox-promo-page" transform="translate(-295.000000, -407.000000)" fill="#FFFFFF">
            <g id="Good-For" transform="translate(55.000000, 292.000000)">
                <g id="Business" transform="translate(240.000000, 115.000000)">
                    <path d="M8.40315315,14.9939189 L56.9833333,14.9939189 L32.6932432,3.09481982 L8.40315315,14.9939189 Z M63.3018018,17.9218468 L2.09054054,17.9218468 C1.40540541,17.9218468 0.813963964,17.4475225 0.661711712,16.7858108 C0.509459459,16.1240991 0.831531532,15.438964 1.4463964,15.1403153 L32.0490991,0.149324324 C32.459009,-0.0497747748 32.9333333,-0.0497747748 33.3373874,0.149324324 L63.9459459,15.1403153 C64.554955,15.438964 64.8828829,16.1240991 64.7306306,16.7858108 C64.5725225,17.4475225 63.9810811,17.9218468 63.3018018,17.9218468 L63.3018018,17.9218468 Z" id="Fill-1406"></path>
                    <path d="M63.9283784,58.6083333 L1.46396396,58.6083333 C0.655855856,58.6083333 0,57.9524775 0,57.1443694 C0,56.3362613 0.655855856,55.6804054 1.46396396,55.6804054 L63.9283784,55.6804054 C64.7364865,55.6804054 65.3923423,56.3362613 65.3923423,57.1443694 C65.3923423,57.9524775 64.7364865,58.6083333 63.9283784,58.6083333" id="Fill-1407"></path>
                    <path d="M6.63468468,58.5849099 C5.82657658,58.5849099 5.17072072,57.9290541 5.17072072,57.1209459 L5.17072072,23.3443694 C5.17072072,22.5362613 5.82657658,21.8804054 6.63468468,21.8804054 C7.44279279,21.8804054 8.09864865,22.5362613 8.09864865,23.3443694 L8.09864865,57.1209459 C8.09864865,57.9290541 7.44279279,58.5849099 6.63468468,58.5849099" id="Fill-1408"></path>
                    <path d="M12.7481982,58.5849099 C11.9400901,58.5849099 11.2842342,57.9290541 11.2842342,57.1209459 L11.2842342,23.3443694 C11.2842342,22.5362613 11.9400901,21.8804054 12.7481982,21.8804054 C13.5563063,21.8804054 14.2121622,22.5362613 14.2121622,23.3443694 L14.2121622,57.1209459 C14.2121622,57.9290541 13.5563063,58.5849099 12.7481982,58.5849099" id="Fill-1409"></path>
                    <path d="M22.0707207,58.5849099 C21.2626126,58.5849099 20.6067568,57.9290541 20.6067568,57.1209459 L20.6067568,23.3443694 C20.6067568,22.5362613 21.2626126,21.8804054 22.0707207,21.8804054 C22.8788288,21.8804054 23.5346847,22.5362613 23.5346847,23.3443694 L23.5346847,57.1209459 C23.5346847,57.9290541 22.8788288,58.5849099 22.0707207,58.5849099" id="Fill-1410"></path>
                    <path d="M28.1842342,58.5849099 C27.3761261,58.5849099 26.7202703,57.9290541 26.7202703,57.1209459 L26.7202703,23.3443694 C26.7202703,22.5362613 27.3761261,21.8804054 28.1842342,21.8804054 C28.9923423,21.8804054 29.6481982,22.5362613 29.6481982,23.3443694 L29.6481982,57.1209459 C29.6481982,57.9290541 28.9923423,58.5849099 28.1842342,58.5849099" id="Fill-1411"></path>
                    <path d="M37.2081081,58.5849099 C36.4,58.5849099 35.7441441,57.9290541 35.7441441,57.1209459 L35.7441441,23.3443694 C35.7441441,22.5362613 36.4,21.8804054 37.2081081,21.8804054 C38.0162162,21.8804054 38.6720721,22.5362613 38.6720721,23.3443694 L38.6720721,57.1209459 C38.6720721,57.9290541 38.0162162,58.5849099 37.2081081,58.5849099" id="Fill-1412"></path>
                    <path d="M43.3216216,58.5849099 C42.5135135,58.5849099 41.8576577,57.9290541 41.8576577,57.1209459 L41.8576577,23.3443694 C41.8576577,22.5362613 42.5135135,21.8804054 43.3216216,21.8804054 C44.1297297,21.8804054 44.7855856,22.5362613 44.7855856,23.3443694 L44.7855856,57.1209459 C44.7855856,57.9290541 44.1297297,58.5849099 43.3216216,58.5849099" id="Fill-1413"></path>
                    <path d="M52.6382883,58.5849099 C51.8301802,58.5849099 51.1743243,57.9290541 51.1743243,57.1209459 L51.1743243,23.3443694 C51.1743243,22.5362613 51.8301802,21.8804054 52.6382883,21.8804054 C53.4463964,21.8804054 54.1022523,22.5362613 54.1022523,23.3443694 L54.1022523,57.1209459 C54.1022523,57.9290541 53.4463964,58.5849099 52.6382883,58.5849099" id="Fill-1414"></path>
                    <path d="M58.7576577,58.5849099 C57.9436937,58.5849099 57.2936937,57.9290541 57.2936937,57.1209459 L57.2936937,23.3443694 C57.2936937,22.5362613 57.9436937,21.8804054 58.7576577,21.8804054 C59.5657658,21.8804054 60.2216216,22.5362613 60.2216216,23.3443694 L60.2216216,57.1209459 C60.2216216,57.9290541 59.5657658,58.5849099 58.7576577,58.5849099" id="Fill-1415"></path>
                    <path d="M63.9283784,24.252027 L58.7576577,24.252027 C57.9495495,24.252027 57.2936937,23.5961712 57.2936937,22.7880631 C57.2936937,21.979955 57.9495495,21.3240991 58.7576577,21.3240991 L63.9283784,21.3240991 C64.7364865,21.3240991 65.3923423,21.979955 65.3923423,22.7880631 C65.3923423,23.5961712 64.7364865,24.252027 63.9283784,24.252027" id="Fill-1416"></path>
                    <path d="M52.6441441,24.252027 L43.3216216,24.252027 C42.5135135,24.252027 41.8576577,23.5961712 41.8576577,22.7880631 C41.8576577,21.979955 42.5135135,21.3240991 43.3216216,21.3240991 L52.6441441,21.3240991 C53.4522523,21.3240991 54.1081081,21.979955 54.1081081,22.7880631 C54.1081081,23.5961712 53.4522523,24.252027 52.6441441,24.252027" id="Fill-1417"></path>
                    <path d="M37.2081081,24.252027 L28.1842342,24.252027 C27.3761261,24.252027 26.7202703,23.5961712 26.7202703,22.7880631 C26.7202703,21.979955 27.3761261,21.3240991 28.1842342,21.3240991 L37.2081081,21.3240991 C38.0162162,21.3240991 38.6720721,21.979955 38.6720721,22.7880631 C38.6720721,23.5961712 38.0162162,24.252027 37.2081081,24.252027" id="Fill-1418"></path>
                    <path d="M22.0707207,24.252027 L12.7481982,24.252027 C11.9400901,24.252027 11.2842342,23.5961712 11.2842342,22.7880631 C11.2842342,21.979955 11.9400901,21.3240991 12.7481982,21.3240991 L22.0707207,21.3240991 C22.8788288,21.3240991 23.5346847,21.979955 23.5346847,22.7880631 C23.5346847,23.5961712 22.8788288,24.252027 22.0707207,24.252027" id="Fill-1419"></path>
                    <path d="M6.64054054,24.252027 L1.46396396,24.252027 C0.655855856,24.252027 0,23.5961712 0,22.7880631 C0,21.979955 0.655855856,21.3240991 1.46396396,21.3240991 L6.64054054,21.3240991 C7.44864865,21.3240991 8.1045045,21.979955 8.1045045,22.7880631 C8.1045045,23.5961712 7.44864865,24.252027 6.64054054,24.252027" id="Fill-1420"></path>
                    <path d="M63.9283784,64.9912162 L1.46396396,64.9912162 C0.655855856,64.9912162 0,64.3353604 0,63.5272523 C0,62.7191441 0.655855856,62.0632883 1.46396396,62.0632883 L63.9283784,62.0632883 C64.7364865,62.0632883 65.3923423,62.7191441 65.3923423,63.5272523 C65.3923423,64.3353604 64.7364865,64.9912162 63.9283784,64.9912162" id="Fill-1421"></path>
                </g>
            </g>
        </g>
    </g>
</svg>